<svg version="1.2" xmlns="http://www.w3.org/2000/svg" viewBox="0 0 28 23" width="28" height="23">
		<g transform="scale(1.10)">
			<path fill-rule="evenodd" fill="rgba(0,0,0,0.45)" d="m25 7.4v10.8c0 1-0.8 1.8-1.8 1.8h-20.4c-1 0-1.8-0.8-1.8-1.8v-10.8c0-1 0.8-1.8 1.8-1.8h1v-0.6c0-0.5 0.4-0.9 0.9-0.9h1.6c0.5 0 0.9 0.4 0.9 0.9v0.6h1.7l0.6-1.7c0.2-0.5 0.7-0.9 1.3-0.9h4.4c0.6 0 1.1 0.4 1.3 0.9l0.6 1.7h6.1c1 0 1.8 0.8 1.8 1.8zm-14.3-2.3h4.6l-0.2-0.9c-0.1-0.2-0.2-0.3-0.4-0.3h-3.4c-0.2 0-0.3 0.1-0.4 0.3zm13.6 13.1v-1.2h-6.3c1-1.1 1.6-2.6 1.6-4.3 0-1.6-0.6-3.1-1.6-4.2h6.3v-1.2c0-0.5-0.5-1-1-1h-20.4c-0.6 0-1.1 0.5-1.1 1v1.2h6.3c-1 1.1-1.6 2.6-1.6 4.2 0 1.7 0.6 3.2 1.6 4.3h-6.3v1.2c0 0.5 0.5 1 1.1 1h20.4c0.5 0 1-0.5 1-1z"/>
			<path fill-rule="evenodd" fill="rgba(0,0,0,0.45)" d="m13 18.5c-3.3 0-5.9-2.5-5.9-5.7 0-3.1 2.6-5.7 5.9-5.7 3.2 0 5.8 2.6 5.8 5.7 0 3.2-2.6 5.7-5.8 5.7zm4.5-5.7c0-2.5-2-4.4-4.5-4.4-2.6 0-4.6 1.9-4.6 4.4 0 2.5 2 4.5 4.6 4.5 2.5 0 4.5-2 4.5-4.5z"/>
		</g>
</svg>