<?xml version="1.0" encoding="UTF-8"?>
<svg xmlns="http://www.w3.org/2000/svg" xmlns:xlink="http://www.w3.org/1999/xlink" width="24px" height="24px" viewBox="0 0 24 24" version="1.1">
<g id="surface1">
<path style=" stroke:none;fill-rule:evenodd;fill:#f49d00" d="M 11.539062 1.40625 C 10.808594 1.507812 10.160156 1.8125 9.632812 2.304688 C 9.4375 2.488281 9.214844 2.726562 9.144531 2.832031 C 8.851562 3.257812 0.394531 17.433594 0.277344 17.695312 C -0.0742188 18.476562 -0.0976562 19.539062 0.222656 20.339844 C 0.425781 20.855469 0.652344 21.195312 1.074219 21.609375 C 1.40625 21.941406 1.554688 22.050781 1.921875 22.230469 C 2.777344 22.652344 1.851562 22.617188 12 22.617188 C 22.15625 22.617188 21.207031 22.652344 22.078125 22.230469 C 22.449219 22.046875 22.59375 21.941406 22.925781 21.609375 C 23.464844 21.074219 23.859375 20.375 23.9375 19.804688 C 23.953125 19.6875 23.984375 19.578125 24.007812 19.566406 C 24.027344 19.550781 24.046875 19.308594 24.046875 19.019531 C 24.046875 18.734375 24.03125 18.515625 24.015625 18.53125 C 23.996094 18.550781 23.945312 18.414062 23.898438 18.226562 C 23.851562 18.042969 23.761719 17.785156 23.703125 17.648438 C 23.585938 17.398438 15.214844 3.371094 14.902344 2.902344 C 14.199219 1.855469 12.804688 1.234375 11.539062 1.40625 M 11.582031 2.859375 C 11.214844 2.9375 10.789062 3.171875 10.53125 3.4375 C 10.34375 3.632812 9.300781 5.339844 5.988281 10.890625 C 3.621094 14.847656 1.644531 18.179688 1.59375 18.289062 C 1.308594 18.9375 1.417969 19.769531 1.867188 20.363281 C 2.082031 20.648438 2.507812 20.953125 2.871094 21.078125 C 3.105469 21.160156 3.503906 21.164062 12 21.164062 C 20.496094 21.164062 20.894531 21.160156 21.128906 21.078125 C 21.703125 20.878906 22.210938 20.398438 22.414062 19.867188 C 22.613281 19.34375 22.605469 18.730469 22.390625 18.257812 C 22.226562 17.902344 13.753906 3.761719 13.570312 3.535156 C 13.140625 3.011719 12.269531 2.714844 11.582031 2.859375 M 11.441406 5.792969 C 10.859375 5.949219 10.335938 6.394531 10.066406 6.972656 L 9.914062 7.289062 L 9.902344 9.847656 C 9.886719 12.242188 9.894531 12.421875 9.976562 12.6875 C 10.351562 13.890625 11.714844 14.511719 12.855469 13.996094 C 13.417969 13.746094 13.847656 13.265625 14.015625 12.707031 C 14.109375 12.40625 14.113281 12.292969 14.097656 9.84375 L 14.085938 7.289062 L 13.933594 6.972656 C 13.757812 6.597656 13.363281 6.160156 13.039062 5.984375 C 12.566406 5.730469 11.957031 5.65625 11.441406 5.792969 M 11.640625 7.265625 C 11.3125 7.460938 11.320312 7.40625 11.320312 9.96875 C 11.320312 12.222656 11.324219 12.277344 11.417969 12.402344 C 11.589844 12.636719 11.753906 12.726562 12 12.726562 C 12.246094 12.726562 12.410156 12.636719 12.582031 12.402344 C 12.675781 12.277344 12.679688 12.222656 12.679688 9.96875 C 12.679688 7.839844 12.671875 7.652344 12.59375 7.507812 C 12.480469 7.296875 12.257812 7.171875 12 7.171875 C 11.875 7.171875 11.730469 7.207031 11.640625 7.265625 M 11.382812 15.652344 C 10.804688 15.835938 10.328125 16.261719 10.066406 16.816406 C 9.871094 17.234375 9.832031 17.859375 9.972656 18.308594 C 10.417969 19.714844 12.101562 20.25 13.300781 19.363281 C 13.597656 19.144531 13.90625 18.699219 14.019531 18.320312 C 14.167969 17.832031 14.136719 17.246094 13.933594 16.816406 C 13.765625 16.460938 13.394531 16.035156 13.089844 15.855469 C 12.59375 15.566406 11.910156 15.484375 11.382812 15.652344 M 11.640625 17.109375 C 11.34375 17.289062 11.226562 17.777344 11.421875 18.035156 C 11.589844 18.261719 11.753906 18.351562 12 18.351562 C 12.371094 18.351562 12.671875 18.066406 12.671875 17.707031 C 12.671875 17.300781 12.394531 17.015625 12 17.015625 C 11.875 17.015625 11.730469 17.050781 11.640625 17.109375 M 0.0195312 19.078125 C 0.0195312 19.375 0.0234375 19.496094 0.0351562 19.347656 C 0.0429688 19.199219 0.0429688 18.957031 0.0351562 18.808594 C 0.0234375 18.660156 0.0195312 18.78125 0.0195312 19.078125 "/>
</g>
</svg>
