<svg width="24" height="24" viewBox="0 0 24 24" fill="none" xmlns="http://www.w3.org/2000/svg">
<path d="M6 1.5H13.5V3H6C5.60218 3 5.22064 3.15804 4.93934 3.43934C4.65804 3.72064 4.5 4.10218 4.5 4.5V19.5C4.5 19.8978 4.65804 20.2794 4.93934 20.5607C5.22064 20.842 5.60218 21 6 21H18C18.3978 21 18.7794 20.842 19.0607 20.5607C19.342 20.2794 19.5 19.8978 19.5 19.5V9H21V19.5C21 20.2956 20.6839 21.0587 20.1213 21.6213C19.5587 22.1839 18.7956 22.5 18 22.5H6C5.20435 22.5 4.44129 22.1839 3.87868 21.6213C3.31607 21.0587 3 20.2956 3 19.5V4.5C3 3.70435 3.31607 2.94129 3.87868 2.37868C4.44129 1.81607 5.20435 1.5 6 1.5Z" fill="white"/>
<path d="M13.5 6.75V1.5L21 9H15.75C15.1533 9 14.581 8.76295 14.159 8.34099C13.7371 7.91903 13.5 7.34674 13.5 6.75Z" fill="white"/>
<path fill-rule="evenodd" clip-rule="evenodd" d="M7.5 17.25C7.5 17.0511 7.57902 16.8603 7.71967 16.7197C7.86032 16.579 8.05109 16.5 8.25 16.5H11.25C11.4489 16.5 11.6397 16.579 11.7803 16.7197C11.921 16.8603 12 17.0511 12 17.25C12 17.4489 11.921 17.6397 11.7803 17.7803C11.6397 17.921 11.4489 18 11.25 18H8.25C8.05109 18 7.86032 17.921 7.71967 17.7803C7.57902 17.6397 7.5 17.4489 7.5 17.25ZM7.5 14.25C7.5 14.0511 7.57902 13.8603 7.71967 13.7197C7.86032 13.579 8.05109 13.5 8.25 13.5H15.75C15.9489 13.5 16.1397 13.579 16.2803 13.7197C16.421 13.8603 16.5 14.0511 16.5 14.25C16.5 14.4489 16.421 14.6397 16.2803 14.7803C16.1397 14.921 15.9489 15 15.75 15H8.25C8.05109 15 7.86032 14.921 7.71967 14.7803C7.57902 14.6397 7.5 14.4489 7.5 14.25ZM7.5 11.25C7.5 11.0511 7.57902 10.8603 7.71967 10.7197C7.86032 10.579 8.05109 10.5 8.25 10.5H15.75C15.9489 10.5 16.1397 10.579 16.2803 10.7197C16.421 10.8603 16.5 11.0511 16.5 11.25C16.5 11.4489 16.421 11.6397 16.2803 11.7803C16.1397 11.921 15.9489 12 15.75 12H8.25C8.05109 12 7.86032 11.921 7.71967 11.7803C7.57902 11.6397 7.5 11.4489 7.5 11.25Z" fill="white"/>
</svg>
