<?xml version="1.0" encoding="UTF-8"?>
<!DOCTYPE svg PUBLIC "-//W3C//DTD SVG 1.1//EN" "http://www.w3.org/Graphics/SVG/1.1/DTD/svg11.dtd">
<svg xmlns="http://www.w3.org/2000/svg" version="1.1" width="512px" height="512px" style="shape-rendering:geometricPrecision; text-rendering:geometricPrecision; image-rendering:optimizeQuality; fill-rule:evenodd; clip-rule:evenodd" xmlns:xlink="http://www.w3.org/1999/xlink">
<g><path style="opacity:0.993" fill="#98d6df" d="M 223.5,6.5 C 244.836,6.33337 266.169,6.50004 287.5,7C 291.531,21.3204 294.865,35.8204 297.5,50.5C 323.875,55.3423 348.042,65.3423 370,80.5C 382.584,72.7918 395.084,64.9584 407.5,57C 408.5,56.3333 409.5,56.3333 410.5,57C 425.542,71.7075 440.208,86.7075 454.5,102C 446.632,114.901 438.632,127.734 430.5,140.5C 445.558,162.654 455.558,186.988 460.5,213.5C 474.913,216.216 489.246,219.383 503.5,223C 504.161,233.759 504.495,244.593 504.5,255.5C 504.495,266.407 504.161,277.241 503.5,288C 489.246,291.617 474.913,294.784 460.5,297.5C 455.667,323.841 445.667,348.007 430.5,370C 438.208,382.584 446.042,395.084 454,407.5C 454.667,408.5 454.667,409.5 454,410.5C 439.293,425.542 424.293,440.208 409,454.5C 396.099,446.632 383.266,438.632 370.5,430.5C 348.15,445.176 323.817,455.176 297.5,460.5C 294.783,474.917 291.616,489.25 288,503.5C 277.241,504.161 266.407,504.495 255.5,504.5C 244.593,504.495 233.759,504.161 223,503.5C 219.384,489.25 216.217,474.917 213.5,460.5C 187.304,455.316 163.138,445.316 141,430.5C 128.416,438.208 115.916,446.042 103.5,454C 102.5,454.667 101.5,454.667 100.5,454C 85.4584,439.293 70.7917,424.293 56.5,409C 64.3684,396.099 72.3684,383.266 80.5,370.5C 65.8238,348.15 55.8238,323.817 50.5,297.5C 36.1398,294.528 21.8065,291.361 7.5,288C 6.83873,277.241 6.5054,266.407 6.5,255.5C 6.5054,244.593 6.83873,233.759 7.5,223C 21.7496,219.384 36.0829,216.217 50.5,213.5C 55.4331,187.022 65.4331,162.689 80.5,140.5C 72.6667,128.167 64.8333,115.833 57,103.5C 56.3333,102.5 56.3333,101.5 57,100.5C 71.7075,85.4584 86.7075,70.7917 102,56.5C 114.984,64.4935 127.984,72.4935 141,80.5C 162.958,65.3423 187.125,55.3423 213.5,50.5C 216.209,35.6671 219.542,21.0004 223.5,6.5 Z M 252.5,126.5 C 308.264,128.152 348.431,153.819 373,203.5C 392.655,253.93 385.321,299.93 351,341.5C 308.579,383.717 259.412,394.217 203.5,373C 148.948,345.42 123.781,300.92 128,239.5C 137.498,183.67 169.331,147.503 223.5,131C 233.214,128.824 242.881,127.324 252.5,126.5 Z"/></g>
</svg>
