<?xml version="1.0" encoding="UTF-8" standalone="no" ?>
<!DOCTYPE svg PUBLIC "-//W3C//DTD SVG 1.1//EN" "http://www.w3.org/Graphics/SVG/1.1/DTD/svg11.dtd">
<svg xmlns="http://www.w3.org/2000/svg" xmlns:xlink="http://www.w3.org/1999/xlink" version="1.1" width="30" height="30" viewBox="0 0 44 44" xml:space="preserve">
<desc>Created with Fabric.js 3.6.6</desc>
<defs>
</defs>
<g transform="matrix(0.46 0 0 0.46 20.5 20.5)"  >
<circle style="stroke: #f49d00; stroke-width: 1; stroke-dasharray: none; stroke-linecap: butt; stroke-dashoffset: 0; stroke-linejoin: miter; stroke-miterlimit: 4; fill: none; fill-rule: nonzero; opacity: 1;" vector-effect="non-scaling-stroke"  cx="0" cy="0" r="40" />
</g>
<g transform="matrix(0 -0.19 0.19 0 -3.94 11.82)"  >
<path style="fill: #f49d00; fill-rule: nonzero; opacity: 1;"  transform=" translate(-62.2, -20.73)" d="m 20.013628 0 l 84.37401 0 l 0 0 c 11.053215 -1.04756605e-14 20.013626 9.282301 20.013626 20.7326 c 0 11.450296 -8.960411 20.7326 -20.013626 20.7326 l -84.37401 0 l 0 0 c -11.053222 0 -20.013628 -9.282303 -20.013628 -20.7326 c -5.2380687e-15 -11.450298 8.960406 -20.7326 20.013628 -20.7326 z" stroke-linecap="round" />
</g>
<g transform="matrix(0 -0.15 0.16 0 15.29 20.32)"  >
<path style="fill: #f49d00; fill-rule: nonzero; opacity: 1;" vector-effect="non-scaling-stroke"  transform=" translate(-62.2, -20.73)" d="m 20.013628 0 l 84.37401 0 l 0 0 c 11.053215 -1.04756605e-14 20.013626 9.282301 20.013626 20.7326 c 0 11.450296 -8.960411 20.7326 -20.013626 20.7326 l -84.37401 0 l 0 0 c -11.053222 0 -20.013628 -9.282303 -20.013628 -20.7326 c -5.2380687e-15 -11.450298 8.960406 -20.7326 20.013628 -20.7326 z" stroke-linecap="round" />
</g>
<g transform="matrix(0 -0.15 0.16 0 25.68 20.32)"  >
<path style="fill: #f49d00; fill-rule: nonzero; opacity: 1;" vector-effect="non-scaling-stroke"  transform=" translate(-62.2, -20.73)" d="m 20.013628 0 l 84.37401 0 l 0 0 c 11.053215 -1.04756605e-14 20.013626 9.282301 20.013626 20.7326 c 0 11.450296 -8.960411 20.7326 -20.013626 20.7326 l -84.37401 0 l 0 0 c -11.053222 0 -20.013628 -9.282303 -20.013628 -20.7326 c -5.2380687e-15 -11.450298 8.960406 -20.7326 20.013628 -20.7326 z" stroke-linecap="round" />
</g>
</svg>
