<?xml version="1.0" encoding="UTF-8"?>
<svg xmlns="http://www.w3.org/2000/svg" xmlns:xlink="http://www.w3.org/1999/xlink" width="24px" height="24px" viewBox="0 0 24 24" version="1.1">
<g id="surface1">
<path style=" stroke:none;fill-rule:nonzero;fill:#f49d00;fill-opacity:1;" d="M 9 7.5 C 8.171875 7.5 7.5 8.171875 7.5 9 L 7.5 15 C 7.5 15.828125 8.171875 16.5 9 16.5 C 9.828125 16.5 10.5 15.828125 10.5 15 L 10.5 9 C 10.5 8.171875 9.828125 7.5 9 7.5 Z M 12 0 C 5.371094 0 0 5.371094 0 12 C 0 18.628906 5.371094 24 12 24 C 18.628906 24 24 18.628906 24 12 C 24 5.371094 18.628906 0 12 0 Z M 12 21 C 7.03125 21 3 16.96875 3 12 C 3 7.03125 7.03125 3 12 3 C 16.96875 3 21 7.03125 21 12 C 21 16.96875 16.96875 21 12 21 Z M 15 7.5 C 14.171875 7.5 13.5 8.171875 13.5 9 L 13.5 15 C 13.5 15.828125 14.171875 16.5 15 16.5 C 15.828125 16.5 16.5 15.828125 16.5 15 L 16.5 9 C 16.5 8.171875 15.828125 7.5 15 7.5 Z M 15 7.5 "/>
</g>
</svg>
