
<svg id="svg" xmlns="http://www.w3.org/2000/svg" xmlns:xlink="http://www.w3.org/1999/xlink" width="400" height="384.90566037735846" viewBox="0, 0, 400,384.90566037735846"><g id="svgg"><path id="path0" d="M340.252 15.684 L 340.252 23.270 282.390 23.270 L 224.528 23.270 224.489 33.491 C 224.468 39.112,224.245 45.763,223.993 48.270 L 223.536 52.830 281.875 52.830 L 340.213 52.830 340.389 60.390 L 340.566 67.950 362.303 53.004 L 384.041 38.058 372.052 29.852 C 365.458 25.338,355.605 18.597,350.157 14.871 L 340.252 8.097 340.252 15.684 M146.132 21.541 C 153.572 88.894,103.875 145.517,36.006 147.015 L 22.642 147.310 22.642 166.108 L 22.642 184.906 33.673 184.906 C 110.402 184.906,173.033 130.075,183.434 53.795 C 184.432 46.471,184.791 25.524,183.997 20.912 L 183.537 18.239 164.652 18.239 L 145.767 18.239 146.132 21.541 M212.979 97.023 C 211.297 101.600,208.678 108.009,207.158 111.264 C 205.638 114.519,204.467 117.245,204.556 117.322 C 204.644 117.398,231.321 127.655,263.836 140.115 C 314.751 159.625,322.927 162.931,322.746 163.932 C 322.631 164.571,321.455 167.864,320.133 171.250 C 318.209 176.176,317.937 177.344,318.770 177.099 C 321.321 176.348,369.058 164.151,369.447 164.151 C 369.686 164.151,363.145 154.129,354.910 141.879 L 339.937 119.608 337.158 126.812 C 334.948 132.539,334.175 133.935,333.384 133.625 C 331.981 133.074,218.130 89.476,216.981 89.050 C 216.254 88.780,215.336 90.608,212.979 97.023 M178.054 156.018 C 174.805 159.842,169.646 165.288,166.591 168.120 L 161.035 173.270 235.213 247.484 L 309.390 321.698 294.620 333.958 C 286.496 340.701,280.068 346.284,280.334 346.365 C 280.600 346.445,292.421 347.933,306.604 349.672 C 343.090 354.144,364.833 357.385,370.031 359.126 L 371.824 359.727 371.445 355.492 C 371.236 353.163,369.929 333.569,368.539 311.950 C 367.149 290.330,365.805 271.604,365.553 270.336 L 365.094 268.030 349.375 282.679 L 333.655 297.328 259.244 223.192 C 218.318 182.418,184.637 149.059,184.397 149.061 C 184.158 149.064,181.304 152.195,178.054 156.018 M129.843 195.563 C 128.074 197.321,111.287 205.198,100.216 209.464 C 98.922 209.963,100.030 212.525,124.203 264.899 L 149.547 319.811 141.599 323.636 C 134.000 327.293,133.717 327.497,135.172 328.276 C 136.009 328.724,147.375 334.255,160.431 340.567 L 184.167 352.044 184.890 349.135 C 185.288 347.535,188.426 335.392,191.863 322.150 C 195.301 308.908,198.113 297.955,198.113 297.811 C 198.113 297.666,194.545 299.232,190.184 301.290 C 185.823 303.348,182.206 305.031,182.146 305.031 C 182.086 305.031,170.595 280.267,156.611 250.000 C 142.627 219.733,131.018 194.969,130.813 194.969 C 130.608 194.969,130.171 195.236,129.843 195.563 M56.604 219.530 C 54.701 219.797,47.555 220.226,40.723 220.485 L 28.302 220.954 28.302 275.572 L 28.302 330.189 19.846 330.189 L 11.390 330.189 27.808 351.862 C 36.838 363.782,44.462 373.389,44.750 373.211 C 45.038 373.033,52.526 363.351,61.389 351.695 L 77.503 330.503 69.255 330.328 L 61.006 330.152 61.006 274.510 C 61.006 243.907,60.794 218.908,60.535 218.956 C 60.275 219.005,58.506 219.263,56.604 219.530 " stroke="none" fill="#ffffff" fill-rule="evenodd"></path></g></svg>