<?xml version="1.0" encoding="UTF-8"?>
<svg xmlns="http://www.w3.org/2000/svg" xmlns:xlink="http://www.w3.org/1999/xlink" width="24px" height="24px" viewBox="0 0 24 24" version="1.1">
<g id="surface1">
<path style=" stroke:none;fill-rule:nonzero;fill:rgb(0%,0%,0%);fill-opacity:0.45;" d="M 12 0 C 5.371094 0 0 5.371094 0 12 C 0 18.628906 5.371094 24 12 24 C 18.628906 24 24 18.628906 24 12 C 24 5.371094 18.628906 0 12 0 Z M 12 22.125 C 6.40625 22.125 1.875 17.59375 1.875 12 C 1.875 6.40625 6.40625 1.875 12 1.875 C 17.59375 1.875 22.125 6.40625 22.125 12 C 22.125 17.59375 17.59375 22.125 12 22.125 Z M 12 22.125 "/>
<path style=" stroke:none;fill-rule:nonzero;fill:rgb(0%,0%,0%);fill-opacity:0.45;" d="M 16.578125 11.152344 L 9.351562 6.949219 C 8.5625 6.484375 7.804688 6.859375 7.804688 7.789062 L 7.804688 16.214844 C 7.804688 17.140625 8.5625 17.515625 9.351562 17.046875 L 16.519531 12.851562 C 17.3125 12.382812 17.371094 11.617188 16.578125 11.152344 Z M 16.578125 11.152344 "/>
</g>
</svg>
